<svg width="256" height="256" viewBox="0 0 256 256" fill="none" xmlns="http://www.w3.org/2000/svg">
  <circle cx="128" cy="128" r="128" fill="#00E789"/>
  <path d="M128 20C68.2649 20 20 68.2649 20 128C20 187.735 68.2649 236 128 236C187.735 236 236 187.735 236 128C236 68.2649 187.735 20 128 20ZM128 212C81.6081 212 44 174.392 44 128C44 81.6081 81.6081 44 128 44C174.392 44 212 81.6081 212 128C212 174.392 174.392 212 128 212Z" fill="white"/>
  <path d="M128 68C94.9137 68 68 94.9137 68 128C68 161.086 94.9137 188 128 188C161.086 188 188 161.086 188 128C188 94.9137 161.086 68 128 68ZM128 164C108.118 164 92 147.882 92 128C92 108.118 108.118 92 128 92C147.882 92 164 108.118 164 128C164 147.882 147.882 164 128 164Z" fill="white"/>
</svg>